<svg width="32" height="32" viewBox="0 0 32 32" fill="none" xmlns="http://www.w3.org/2000/svg">
<mask id="path-1-outside-1_242_92" maskUnits="userSpaceOnUse" x="1" y="1" width="30" height="30" fill="black">
<rect fill="white" x="1" y="1" width="30" height="30"/>
<path fill-rule="evenodd" clip-rule="evenodd" d="M5 3C3.89543 3 3 3.89543 3 5V27C3 28.1046 3.89543 29 5 29H9V3H5ZM21 9H17V13H21C22.1046 13 23 12.1046 23 11C23 9.89543 22.1046 9 21 9ZM11 9V13V19V23V29H17H21C25.4183 29 29 25.4183 29 21C29 19.1081 28.3433 17.3696 27.2454 16C28.3433 14.6304 29 12.8919 29 11C29 6.58172 25.4183 3 21 3H17H11V9ZM17 19H21C22.1046 19 23 19.8954 23 21C23 22.1046 22.1046 23 21 23H17V19Z"/>
</mask>
<path fill-rule="evenodd" clip-rule="evenodd" d="M5 3C3.89543 3 3 3.89543 3 5V27C3 28.1046 3.89543 29 5 29H9V3H5ZM21 9H17V13H21C22.1046 13 23 12.1046 23 11C23 9.89543 22.1046 9 21 9ZM11 9V13V19V23V29H17H21C25.4183 29 29 25.4183 29 21C29 19.1081 28.3433 17.3696 27.2454 16C28.3433 14.6304 29 12.8919 29 11C29 6.58172 25.4183 3 21 3H17H11V9ZM17 19H21C22.1046 19 23 19.8954 23 21C23 22.1046 22.1046 23 21 23H17V19Z" fill="black"/>
<path d="M9 29V31H11V29H9ZM9 3H11V1H9V3ZM17 9V7H15V9H17ZM17 13H15V15H17V13ZM11 29H9V31H11V29ZM27.2454 16L25.6849 14.7491L24.6821 16L25.6849 17.2509L27.2454 16ZM11 3V1H9V3H11ZM17 19V17H15V19H17ZM17 23H15V25H17V23ZM5 5V5V1C2.79086 1 1 2.79086 1 5H5ZM5 27V5H1V27H5ZM5 27H5H1C1 29.2091 2.79086 31 5 31V27ZM9 27H5V31H9V27ZM7 3V29H11V3H7ZM5 5H9V1H5V5ZM17 11H21V7H17V11ZM19 13V9H15V13H19ZM21 11H17V15H21V11ZM21 11V15C23.2091 15 25 13.2091 25 11H21ZM21 11H25C25 8.79086 23.2091 7 21 7V11ZM13 13V9H9V13H13ZM13 19V13H9V19H13ZM13 23V19H9V23H13ZM13 29V23H9V29H13ZM17 27H11V31H17V27ZM21 27H17V31H21V27ZM27 21C27 24.3137 24.3137 27 21 27V31C26.5228 31 31 26.5228 31 21H27ZM25.6849 17.2509C26.5086 18.2785 27 19.5791 27 21H31C31 18.6371 30.178 16.4607 28.8059 14.7491L25.6849 17.2509ZM27 11C27 12.4209 26.5086 13.7215 25.6849 14.7491L28.8059 17.2509C30.178 15.5393 31 13.3629 31 11H27ZM21 5C24.3137 5 27 7.68629 27 11H31C31 5.47715 26.5228 1 21 1V5ZM17 5H21V1H17V5ZM11 5H17V1H11V5ZM13 9V3H9V9H13ZM21 17H17V21H21V17ZM25 21C25 18.7909 23.2091 17 21 17V21H25ZM21 25C23.2091 25 25 23.2091 25 21H21V25ZM17 25H21V21H17V25ZM15 19V23H19V19H15Z" fill="white" mask="url(#path-1-outside-1_242_92)"/>
</svg>
