<svg width="32" height="32" viewBox="0 0 32 32" fill="none" xmlns="http://www.w3.org/2000/svg">
<style>
  path {fill: black; stroke:white;}
  @media (prefers-color-scheme: dark) {
    path { fill: white}
  }
</style>
<path fill-rule="evenodd" clip-rule="evenodd" d="M21.3103 1H9.99995V31H21.7833C23.7042 31 25.3528 30.6562 26.7289 29.9685C28.1051 29.2521 29.1515 28.235 29.8683 26.9169C30.585 25.5989 30.9434 24.0516 30.9434 22.2751C30.9434 20.384 30.5134 18.851 29.6533 17.6762C28.8218 16.5014 27.6607 15.6418 26.1699 15.0974V14.9685C26.9153 14.6246 27.5604 14.1662 28.1051 13.5931C28.6785 12.9914 29.1229 12.2607 29.4382 11.4011C29.7823 10.5415 29.9543 9.56733 29.9543 8.47851C29.9543 6.15759 29.1945 4.33811 27.675 3.02006C26.1842 1.67335 24.0626 1 21.3103 1ZM21.3533 23.9943C20.9806 24.1948 20.5219 24.2951 19.9771 24.2951H18.3859V18.7937H19.9771C20.7799 18.7937 21.3963 19.0372 21.8263 19.5244C22.2851 19.9828 22.5144 20.6562 22.5144 21.5444C22.5144 22.1175 22.4141 22.6189 22.2134 23.0487C22.0127 23.4499 21.726 23.765 21.3533 23.9943ZM21.0093 12.0458C20.6652 12.2464 20.2352 12.3467 19.7191 12.3467H18.3859V7.53295H19.7191C20.4932 7.53295 21.0953 7.74785 21.5253 8.17765C21.9554 8.60745 22.1704 9.19484 22.1704 9.93983C22.1704 10.4269 22.07 10.8567 21.8694 11.2292C21.6687 11.5731 21.382 11.8453 21.0093 12.0458Z" fill="black"/>
<path d="M8.99999 9.93983L1.00002 9.93983L1 31L8.99998 31L8.99999 9.93983Z" />
<path d="M5 9C3.75728 9 2.77346 8.63964 2.04854 7.91892C1.34951 7.1982 1 6.23243 1 5.02162C1 3.81081 1.36246 2.84505 2.08738 2.12433C2.8123 1.37477 3.78317 1 5 1C6.21683 1 7.1877 1.37477 7.91262 2.12433C8.63754 2.84505 9 3.81081 9 5.02162C9 6.23243 8.63754 7.1982 7.91262 7.91892C7.21359 8.63964 6.24272 9 5 9Z"/>
</svg>
